<?xml version="1.0" encoding="utf-8"?>
<svg viewBox="113.703 203.563 267.484 65.953" xmlns="http://www.w3.org/2000/svg">
  <path d="M 129.266 230.798 L 122.546 230.798 L 122.546 245.978 C 122.546 247.231 122.809 248.118 123.336 248.638 C 123.869 249.151 124.796 249.408 126.116 249.408 L 129.266 249.408 L 129.266 253.028 L 125.406 253.028 C 123.026 253.028 121.239 252.478 120.046 251.378 C 118.859 250.285 118.266 248.485 118.266 245.978 L 118.266 230.798 L 114.926 230.798 L 114.926 227.268 L 118.266 227.268 L 118.266 220.788 L 122.546 220.788 L 122.546 227.268 L 129.266 227.268 L 129.266 230.798 ZM 145.663 253.448 C 143.249 253.448 141.066 252.901 139.113 251.808 C 137.153 250.708 135.616 249.148 134.503 247.128 C 133.389 245.108 132.833 242.765 132.833 240.098 C 132.833 237.471 133.406 235.148 134.553 233.128 C 135.693 231.101 137.249 229.548 139.223 228.468 C 141.196 227.388 143.406 226.848 145.853 226.848 C 148.299 226.848 150.509 227.388 152.483 228.468 C 154.456 229.548 156.013 231.091 157.153 233.098 C 158.299 235.105 158.873 237.438 158.873 240.098 C 158.873 242.765 158.286 245.108 157.113 247.128 C 155.933 249.148 154.343 250.708 152.343 251.808 C 150.336 252.901 148.109 253.448 145.663 253.448 Z M 145.663 249.688 C 147.203 249.688 148.646 249.328 149.993 248.608 C 151.339 247.888 152.426 246.808 153.253 245.368 C 154.086 243.928 154.503 242.171 154.503 240.098 C 154.503 238.031 154.096 236.278 153.283 234.838 C 152.463 233.398 151.396 232.325 150.083 231.618 C 148.769 230.911 147.343 230.558 145.803 230.558 C 144.236 230.558 142.803 230.911 141.503 231.618 C 140.203 232.325 139.163 233.398 138.383 234.838 C 137.596 236.278 137.203 238.031 137.203 240.098 C 137.203 242.198 137.586 243.971 138.353 245.418 C 139.126 246.858 140.153 247.931 141.433 248.638 C 142.719 249.338 144.129 249.688 145.663 249.688 ZM 168.79 232.018 C 169.63 230.545 170.89 229.315 172.57 228.328 C 174.243 227.341 176.193 226.848 178.42 226.848 C 180.707 226.848 182.783 227.398 184.65 228.498 C 186.51 229.591 187.973 231.135 189.04 233.128 C 190.107 235.115 190.64 237.425 190.64 240.058 C 190.64 242.658 190.107 244.975 189.04 247.008 C 187.973 249.048 186.51 250.631 184.65 251.758 C 182.783 252.885 180.707 253.448 178.42 253.448 C 176.227 253.448 174.293 252.955 172.62 251.968 C 170.94 250.981 169.663 249.751 168.79 248.278 L 168.79 265.248 L 164.51 265.248 L 164.51 227.268 L 168.79 227.268 L 168.79 232.018 Z M 186.27 240.058 C 186.27 238.111 185.877 236.418 185.09 234.978 C 184.31 233.538 183.253 232.441 181.92 231.688 C 180.593 230.935 179.13 230.558 177.53 230.558 C 175.963 230.558 174.513 230.945 173.18 231.718 C 171.847 232.485 170.78 233.595 169.98 235.048 C 169.187 236.508 168.79 238.191 168.79 240.098 C 168.79 242.045 169.187 243.745 169.98 245.198 C 170.78 246.658 171.847 247.771 173.18 248.538 C 174.513 249.305 175.963 249.688 177.53 249.688 C 179.13 249.688 180.593 249.305 181.92 248.538 C 183.253 247.771 184.31 246.658 185.09 245.198 C 185.877 243.745 186.27 242.031 186.27 240.058 ZM 217.947 253.448 C 215.974 253.448 214.204 253.111 212.637 252.438 C 211.071 251.765 209.831 250.825 208.917 249.618 C 208.011 248.411 207.511 247.025 207.417 245.458 L 211.837 245.458 C 211.964 246.745 212.567 247.795 213.647 248.608 C 214.727 249.421 216.144 249.828 217.897 249.828 C 219.524 249.828 220.807 249.468 221.747 248.748 C 222.687 248.028 223.157 247.121 223.157 246.028 C 223.157 244.895 222.657 244.055 221.657 243.508 C 220.657 242.961 219.107 242.421 217.007 241.888 C 215.094 241.388 213.534 240.878 212.327 240.358 C 211.121 239.845 210.087 239.078 209.227 238.058 C 208.367 237.038 207.937 235.698 207.937 234.038 C 207.937 232.725 208.327 231.518 209.107 230.418 C 209.894 229.325 211.007 228.455 212.447 227.808 C 213.887 227.168 215.531 226.848 217.377 226.848 C 220.231 226.848 222.534 227.568 224.287 229.008 C 226.041 230.448 226.981 232.425 227.107 234.938 L 222.837 234.938 C 222.737 233.585 222.194 232.501 221.207 231.688 C 220.221 230.875 218.897 230.468 217.237 230.468 C 215.704 230.468 214.484 230.798 213.577 231.458 C 212.664 232.111 212.207 232.971 212.207 234.038 C 212.207 234.885 212.484 235.581 213.037 236.128 C 213.584 236.681 214.271 237.121 215.097 237.448 C 215.931 237.775 217.084 238.141 218.557 238.548 C 220.404 239.055 221.907 239.548 223.067 240.028 C 224.227 240.515 225.221 241.245 226.047 242.218 C 226.881 243.191 227.314 244.461 227.347 246.028 C 227.347 247.435 226.954 248.701 226.167 249.828 C 225.387 250.961 224.284 251.848 222.857 252.488 C 221.431 253.128 219.794 253.448 217.947 253.448 ZM 245.909 226.798 C 249.043 226.798 251.579 227.748 253.519 229.648 C 255.466 231.541 256.439 234.275 256.439 237.848 L 256.439 253.028 L 252.209 253.028 L 252.209 238.458 C 252.209 235.891 251.566 233.925 250.279 232.558 C 248.993 231.198 247.239 230.518 245.019 230.518 C 242.759 230.518 240.963 231.221 239.629 232.628 C 238.303 234.041 237.639 236.095 237.639 238.788 L 237.639 253.028 L 233.359 253.028 L 233.359 227.268 L 237.639 227.268 L 237.639 230.938 C 238.479 229.625 239.629 228.608 241.089 227.888 C 242.549 227.161 244.156 226.798 245.909 226.798 ZM 265.647 223.088 C 264.833 223.088 264.143 222.805 263.577 222.238 C 263.01 221.678 262.727 220.991 262.727 220.178 C 262.727 219.358 263.01 218.668 263.577 218.108 C 264.143 217.541 264.833 217.258 265.647 217.258 C 266.427 217.258 267.093 217.541 267.647 218.108 C 268.193 218.668 268.467 219.358 268.467 220.178 C 268.467 220.991 268.193 221.678 267.647 222.238 C 267.093 222.805 266.427 223.088 265.647 223.088 Z M 263.437 227.268 L 267.717 227.268 L 267.717 253.028 L 263.437 253.028 L 263.437 227.268 ZM 279.278 232.018 C 280.118 230.545 281.378 229.315 283.058 228.328 C 284.731 227.341 286.681 226.848 288.908 226.848 C 291.194 226.848 293.271 227.398 295.138 228.498 C 296.998 229.591 298.461 231.135 299.528 233.128 C 300.594 235.115 301.128 237.425 301.128 240.058 C 301.128 242.658 300.594 244.975 299.528 247.008 C 298.461 249.048 296.998 250.631 295.138 251.758 C 293.271 252.885 291.194 253.448 288.908 253.448 C 286.714 253.448 284.781 252.955 283.108 251.968 C 281.428 250.981 280.151 249.751 279.278 248.278 L 279.278 265.248 L 274.998 265.248 L 274.998 227.268 L 279.278 227.268 L 279.278 232.018 Z M 296.758 240.058 C 296.758 238.111 296.364 236.418 295.578 234.978 C 294.798 233.538 293.741 232.441 292.408 231.688 C 291.081 230.935 289.618 230.558 288.018 230.558 C 286.451 230.558 285.001 230.945 283.668 231.718 C 282.334 232.485 281.268 233.595 280.468 235.048 C 279.674 236.508 279.278 238.191 279.278 240.098 C 279.278 242.045 279.674 243.745 280.468 245.198 C 281.268 246.658 282.334 247.771 283.668 248.538 C 285.001 249.305 286.451 249.688 288.018 249.688 C 289.618 249.688 291.081 249.305 292.408 248.538 C 293.741 247.771 294.798 246.658 295.578 245.198 C 296.364 243.745 296.758 242.031 296.758 240.058 ZM 311.047 232.018 C 311.887 230.545 313.147 229.315 314.827 228.328 C 316.5 227.341 318.45 226.848 320.677 226.848 C 322.964 226.848 325.04 227.398 326.907 228.498 C 328.767 229.591 330.23 231.135 331.297 233.128 C 332.364 235.115 332.897 237.425 332.897 240.058 C 332.897 242.658 332.364 244.975 331.297 247.008 C 330.23 249.048 328.767 250.631 326.907 251.758 C 325.04 252.885 322.964 253.448 320.677 253.448 C 318.484 253.448 316.55 252.955 314.877 251.968 C 313.197 250.981 311.92 249.751 311.047 248.278 L 311.047 265.248 L 306.767 265.248 L 306.767 227.268 L 311.047 227.268 L 311.047 232.018 Z M 328.527 240.058 C 328.527 238.111 328.134 236.418 327.347 234.978 C 326.567 233.538 325.51 232.441 324.177 231.688 C 322.85 230.935 321.387 230.558 319.787 230.558 C 318.22 230.558 316.77 230.945 315.437 231.718 C 314.104 232.485 313.037 233.595 312.237 235.048 C 311.444 236.508 311.047 238.191 311.047 240.098 C 311.047 242.045 311.444 243.745 312.237 245.198 C 313.037 246.658 314.104 247.771 315.437 248.538 C 316.77 249.305 318.22 249.688 319.787 249.688 C 321.387 249.688 322.85 249.305 324.177 248.538 C 325.51 247.771 326.567 246.658 327.347 245.198 C 328.134 243.745 328.527 242.031 328.527 240.058 ZM 362.036 239.158 C 362.036 239.978 361.99 240.841 361.896 241.748 L 341.306 241.748 C 341.466 244.288 342.336 246.271 343.916 247.698 C 345.496 249.118 347.416 249.828 349.676 249.828 C 351.523 249.828 353.066 249.398 354.306 248.538 C 355.54 247.678 356.41 246.528 356.916 245.088 L 361.516 245.088 C 360.83 247.561 359.453 249.575 357.386 251.128 C 355.313 252.675 352.743 253.448 349.676 253.448 C 347.23 253.448 345.043 252.901 343.116 251.808 C 341.19 250.708 339.68 249.148 338.586 247.128 C 337.486 245.108 336.936 242.765 336.936 240.098 C 336.936 237.438 337.47 235.105 338.536 233.098 C 339.603 231.091 341.1 229.548 343.026 228.468 C 344.953 227.388 347.17 226.848 349.676 226.848 C 352.116 226.848 354.276 227.381 356.156 228.448 C 358.036 229.515 359.486 230.978 360.506 232.838 C 361.526 234.705 362.036 236.811 362.036 239.158 Z M 357.616 238.268 C 357.616 236.641 357.256 235.241 356.536 234.068 C 355.816 232.888 354.836 231.995 353.596 231.388 C 352.363 230.775 350.993 230.468 349.486 230.468 C 347.326 230.468 345.486 231.158 343.966 232.538 C 342.446 233.918 341.576 235.828 341.356 238.268 L 357.616 238.268 ZM 379.614 230.798 L 372.894 230.798 L 372.894 245.978 C 372.894 247.231 373.157 248.118 373.684 248.638 C 374.217 249.151 375.144 249.408 376.464 249.408 L 379.614 249.408 L 379.614 253.028 L 375.754 253.028 C 373.374 253.028 371.587 252.478 370.394 251.378 C 369.207 250.285 368.614 248.485 368.614 245.978 L 368.614 230.798 L 365.274 230.798 L 365.274 227.268 L 368.614 227.268 L 368.614 220.788 L 372.894 220.788 L 372.894 227.268 L 379.614 227.268 L 379.614 230.798 Z" transform="matrix(1, 0, 0, 1, 0, 0)" style="fill: rgb(51, 51, 51); white-space: pre;"/>
</svg>